<svg xmlns="http://www.w3.org/2000/svg" viewBox="0 0 360 250" width="360" height="250" role="img" aria-label="Belle et Belle by Patrícia Almeida"><title>Belle et Belle by Patrícia Almeida</title>
<g transform="translate(120,8)">
<circle cx="60" cy="60" r="54" fill="none" stroke="#E7C9D6" stroke-width="1"/>
<path d="M40,78 C30,66 32,46 46,40 C58,35 64,44 60,54 C57,62 64,66 70,60 C77,53 74,40 64,36" fill="none" stroke="#D81E78" stroke-width="2.4" stroke-linecap="round"/>
<path d="M80,42 C90,54 88,74 74,80 C62,85 56,76 60,66 C63,58 56,54 50,60 C43,67 46,80 56,84" fill="none" stroke="#1A1518" stroke-width="2.4" stroke-linecap="round"/>
<circle cx="60" cy="60" r="2.4" fill="#D81E78"/></g>
<text x="180" y="172" text-anchor="middle" font-family="Marcellus, Georgia, serif" font-size="38" letter-spacing="1.5" fill="#1A1518">Belle <tspan font-style="italic" fill="#D81E78">et</tspan> Belle</text>
<line x1="160" y1="192" x2="200" y2="192" stroke="#D81E78" stroke-width="1"/>
<text x="180" y="216" text-anchor="middle" font-family="'Hanken Grotesk', Arial, sans-serif" font-size="12" font-weight="500" letter-spacing="3.5" fill="#98707F">BY PATRÍCIA ALMEIDA</text></svg>
