<svg xmlns="http://www.w3.org/2000/svg" viewBox="0 0 120 120" width="120" height="120" role="img" aria-label="Belle et Belle"><title>Belle et Belle</title>
<circle cx="60" cy="60" r="54" fill="none" stroke="#E7C9D6" stroke-width="1" opacity="0"><animate attributeName="opacity" to="1" dur="0.5s" begin="0.1s" fill="freeze"/></circle>
<path d="M40,78 C30,66 32,46 46,40 C58,35 64,44 60,54 C57,62 64,66 70,60 C77,53 74,40 64,36" fill="none" stroke="#D81E78" stroke-width="2.4" stroke-linecap="round" stroke-dasharray="120" stroke-dashoffset="120"><animate attributeName="stroke-dashoffset" to="0" dur="0.9s" begin="0.3s" fill="freeze"/></path>
<path d="M80,42 C90,54 88,74 74,80 C62,85 56,76 60,66 C63,58 56,54 50,60 C43,67 46,80 56,84" fill="none" stroke="#1A1518" stroke-width="2.4" stroke-linecap="round" stroke-dasharray="120" stroke-dashoffset="120"><animate attributeName="stroke-dashoffset" to="0" dur="0.9s" begin="0.9s" fill="freeze"/></path>
<circle cx="60" cy="60" r="2.4" fill="#D81E78" opacity="0"><animate attributeName="opacity" to="1" dur="0.4s" begin="1.7s" fill="freeze"/></circle></svg>
