<svg xmlns="http://www.w3.org/2000/svg" viewBox="96 -4 137 221" width="137" height="221" role="img" aria-label="Belle et Belle"><defs><clipPath id="lp"><ellipse cx="193" cy="64" rx="15" ry="10"/></clipPath></defs><path d="M165.31 180.87c9.35 2.18 7.11 1.35 14.73 2.61 2.6.43 5.37.8 7.61 1.84 1.37.64 3.11 1.67 4.04 2.94l.82.59c-1.78 1.11-7.38 1.4-9.33 1.44-6.61.14-16 5.13-18.05.19-1.46-3.52.18-5.76.18-9.6Zm6.45-27.29c7.43 4.97 8.56 6.98 12.41 14.38 1.18 2.27 7.25 15.95 7.93 18.86-5.61-3.76-4.74-3.5-12.32-4.55l-13.48-2.4c0-3.74.12-4.25.94-7l1.5-6.44c.63-3.02 1.98-10.7 3.02-12.86Zm11.91 10.92l1.09.89-.65.28m-.44-1.18l-.43-.56c-1.94-2.98-2.76-5.93-7.3-9.07-1.22-.84-2.44-1.94-3.68-2.27 0-2.01.21-2.2.6-3.86.4-1.69.85-8.09 1.88-12.51l.14.16.15.44 6.3 20.6c.6 1.5 2.22 5.71 2.34 7.09Zm-20.34-14.89c0 3.01-.47 5.49-2.04 7.88-4.14 6.29-16 2.34-8.04-12.01 1.94-3.51 5.02-6.22 7.28-10.09l1.05-1.93c1.07-1.9-.52-.4 1.27-1.71 0 4.08-.49 4.97-.09 8.51.38 3.42.59 5.72.59 9.35ZM141 138.2c-2.79 0-4.5.18-5.95-1.99.66-2.46 8.75-7.02 9.92-11.41 1.61 1.18.75.25 1.11 2.86.61 4.44-.05 10.54-5.08 10.54Zm30.27 11.91h-.99c-1.05-4.49-1.48-6.84-.93-12.34.41-4.09 1.99-8.01 2.91-11.98h.99c1.19 14.28-1.99 16.16-1.99 24.31Zm-7.94-19.85l.15.15-.2-.1Zm-23.82-.5l-.5.5m.5-.5l-.5.5Zm33.24-4.96l1.88.79-2.71.04Zm-33.24 4.96l4.96-10.42-.52 7.45Zm4.96-11.91l.79-.08-.79 1.47Zm-14.39-14.89c2.17.51 3.79.49 6.02-2.91 1.44-2.19 1.91-4.93 1.91-8.5l1.39 4.06c1.62 6.14 1.97 10.08 3.07 14.79-3.06-1.62.85-.75-6.25-3.67-1.6-.66-2.02-1.09-3.2-1.76-1.5-.85-1.96-.67-2.95-2.01Zm17.37 11.41l31.26-26.79m-31.26 26.79c-2.69-2.9-.92-1.14-.99-7.44-.04-3.94 1.31-12.63 1.2-15.25-.03-.78-.22-1.98-.22-3.11 3.5.93-1.67.58 7.5 1.69 2.22.27 3.88-.15 7.1-.98 2.83-.72 3.99-1.61 6.94-2.48 5.47-1.61 2.26-1.2 8.72-1.2-.47 1.77-2.56 3.77-3.95 4.98-11.53 10-18.39 9.14-22.69 20.49-.41 1.08-.57 2.02-1.47 2.56l-.78.28c-1.01.35.31.02-1.36.47Zm17.37-27.29c-2.07.17-4.01 1.56-8.1 1.91-2.84.24-8-.51-8.94-2.37-1.65-3.3 6.31-.97 12.11-.57 2.77.19 3.67-.69 4.93 1.03Zm-18.36-.99l.15.15-.2-.1Zm24.81-1.49l.15.15-.2-.1Zm-35.23-9.43l3.17 2.29c1.38.74 2.9 1.11 4.76 1.19 3.89.16 12.48.1 14.57.81l9.94 4.68c1.03.25-.52.1.98.08l.97-.12c-1.29 2.22-2.98.67-6.15.53-4.9-.22-7.96.21-13.23-.66-2.13-.35-3.97-1.37-7.07-1.37.84 1.59.18 1.79 2.48 1.98v.99l-.77-.34c.53 2.7.94 3 .8 6.79-.21 5.45-2.3 14.87-1.02 20.34-2.19-1.6-2.13-5.27-2.69-8.73-.74-4.59-6.62-22.86-6.74-28.49Zm-3.47.99l.15.15-.2-.1Zm50.61-.5l.15.15-.2-.1Zm-47.14-.5l-.5-.5Zm-.5-.5l-.57-.97Zm-1.98-5.46h.5c0 2.49.06 2.57.5 4.47-1.99-1.46-.99-1.44-.99-4.47Zm50.11-2.98l6.95 1.98m-6.95-1.98l1.88.79-2.71.04Zm5.95 2.98l.98-.98c-.19 2.34-1.41 3.66-2.65 5.27-1.96 2.52-2.38 1.91-5.27 1.67.19-2.25.38-1.56 2.18-3.28l.18-.17c4.06-4.09 3.23-5.11 5.09-6.47-.41 1.77-1.01 2.72-.5 3.97Zm.99-7.44l.5 4.47-.5-1.85ZM135.05 59.8l.15.15-.2-.1Zm0-3.97l.22-.01c.31 1.78.27 2.28.27 2.99h-.5Zm55.08-.99l.62-1.76-.3 3.5Zm6.45-.99l.15.15-.2-.1Zm.5-6.95c.32 1.5 0 3.77 0 6.45h-.5c0-1.49-.32-5.16.5-6.45m0 0V44.91l.56-1.11-.21 2.54Zm-.5-2.98l.15.15-.2-.1ZM135.05 55.83l.01-10.9 1.48-2.99-.29 1.5c-.6 2.6-.58 3.13-.79 4.86-.3 2.44-.4 4.41-.4 7.53Zm1.49-14.88l.7.23Zm.5-.99l51.11.99Zm51.11-.5l-51.11.5m51.11-.5l.15.15-.2-.1Zm-5.95-4.47l7.44 2.98m-7.44-2.98l.15.15-.2-.1Zm-1.49 0l.97-.57ZM177.72 34l2.81.27-3.53.45Zm-18.36-1.98l17.37 2.48m-17.37-2.48l-.5-.99 1.53.27Zm-15.88-2.48l15.38 1.49Zm14.89-.99l-14.89.99m14.89-.99l-.8 1.23.8-2.22Zm.5-1.49l1.99.5-.81.01c-1.03-.3-.7-.2-1.18-.51Zm-4.47 0h2.48v1.49l-.29-.26-1-.3c-1.18-.55-1.14.71-1.19-.93Zm0-.99l.15.15-.2-.1Zm24.31 61.53c0 20.48-8.82 15.48-14.39 36.22l-2.92 7.5c-1.55 3.87-6.25 9.03-8.28 12.07-10.46 15.7 3.81 24.67 10.12 13.09 2.38-4.38 1.32-10.9.65-16.86-.34-2.96-.1-10.74 2.09-12.15 2.44-1.57 2.57.58 3.3-2.17-2.61.06-1.9.51-3.97.99.26-3.14 2.79-10.37 4.17-12.7 4.29-7.25 7.72-8.02 9.51-15.8.68-2.98.47-4.46.78-7.66.25-2.53 1-4.62 1.45-7.01.81-4.33-.44-3.65-.52-7.45 3.78 2 5.81 1.84 8.57-1.35 5.57-6.43 1.26-22.32 2.21-33.52.38-4.48-.57-7.61-1.45-11.18-1.22-4.91-1.27-4.92-3.96-9.44-2.3-3.87-2.96-4.23-7.18-6.26-1.41-.68-6.26-.58-8.46-.14-2.61.53-1.61.05-2.13 1.34 1.48.61 8.43-1.69 13.41 1.48 2.33 1.48 5.68 8.43 6.45 11.42l1.21 4.78.27 5.15c-3.49-2.33-5.39-6.61-13.7-5.27-.59.09-2.24.4-2.9.57-2.41.61-1.1-.34-2.25 1.23 2.69.62 3.07.24 5.95 0v1.49c1.22-.58 2.15-.95 3.97-.99 1.05 1.44 1.71.96 3.83 1.63 2.88.92 1.55 1.1 2.62 3.33l.98.98.01 1.5.95-.93-.54 6.72c.46 3.4.59-.55.59 7.11-3.37 1.62-10.5 3.49-10.92 8.44 1.65-1.1.92-1.09 2.21-2.26.8-.72 8.29-6.15 9.06-3.64l.04-.63c.01 6.53-2.44 11.18-5.86 13.47l-2.48 3.97c.05-2.13 1.31-4.54 2.71-6.22 1.16-1.39.17-1.05 2.25-1.22-1.21-1.81-.84-2.05-2.94-1.7l-.59.16c-1.2.22-1.39.03-3.42-.94.91 3.4 5.05.53 2.23 5.14-.78 1.27-.95 1.55-1.43 3.1-.85 2.77-.9 4.78-1.29 6.64l.26-.15 1.22-1.84c0 3.04-.44 4.7-.5 6.95l-1.01.93c-1.1-1.56-1.58-1.51-3.21-1.77-3.59-.57-10.56-3.13-13.64-4.61 1.38-2.06 1.53-4.28.02-6.47-1.53-2.21-3.61-1.8-6.47-2.46.87 2.15 2.22 1.46 3.67 1.71.51.09.94-1.12 2.35 3.25 1.53 4.75-2.32 2.85-3.15 2.7-8.47-1.52-22.74 2.61-23.02-9.28-.03-1.45-.05-2.93.4-4.73 1.51-6.04.52-8.78.88-15.49.18-3.41 1.22-7.34 3.3-9.6l.18-.17c1.06-1.17 1.34-1.69 1.5-3.6-.1-.18-.8-.44.35-2.06 1.07-1.51 3.96-3.85 6.1-4.42 1.9-.51 2.35-.37 4.67.29 4.46 1.27 4.11.6 4.76 2.22 1.18.79.52.6 1.98.99.69 2.6 1.22 1.2 2.05 2.97l.22.58.36.52.16-.15-.37-.93-1.02.24 2.68.32c-.28-.54-.36-.66-.41-.76l-2.67-4.28c-1.63-.43-1.58-.28-1.98-1.98l.94-.01 1.54 1c.35-.5.02.17.55-.94l.37-.91c1.59.21 3.28.42 4.5 1.38l.48.45.44.46.24.26 1.85 1.77c-.44-5.22-7.63-6.59-11.91-6.95-.22-2.61-2.76-5.56 2.12-11.28 2.25-2.64 6.94-4.62 11.28-3.6l.15-.56-2.02-.86c-6.19-.48-11.36 3.34-13.18 9.19-1.03 3.32.11 5.21.67 7.61-1.85-.43-1.78-.72-4.2-.01l-.35.12c-2.78 1.2-3.36.86-5.03 1.71-2.06 1.05-1.17 1.57-3.32 2.14.41-.86 1.23-3.77 1.52-4.88l.52-2.07c.37-1.34.45-.84.45-2.97h-.99c-.36 4.27-5.11 16.12-7.94 20.34l-.5.99c-2.26.82-3.21 6.04-3.43 8-.36 3.1.81 7.39.97 10.37.2 3.79-1.1 6.52-1.75 9.71-.57 2.8.27 2.09.21 4.63-.04 1.72-.47 2.91-.47 5.49l.74-.96.14-.13 1.42-2.04c.04-.07.1-.24.18-.34.59 2.55 2.7 11.27 2.66 13.64-.03 1.84.17 1.12-.2 3.18-.7 3.88-1.54 8.19-4.94 8.98l.13.08c-3.05.94-3.51.79-4.63-.01-.99-.72-2.53-2.87-2.99-4.03-1.02-2.56 1.76-7.05 3.03-9.44-2.28.83-3.02 3.42-3.94 5.48l-.14.42c-.38-4.35 1.93-3.08 2.53-8.95.43-4.17.6-7.2 1.21-11.19 2.18-14.24-3.29-21.36 1.39-34.34 1.17-3.25 7.72-12.04 10.16-15.15 1.09-1.39 1.67-2.36 2.82-3.63 3.53-3.91 2.66-5.23 9.01-9.85 6.15-4.48 12.23-5.86 19.35-3.38 1.17.41 3.73 1.33 4.55 1.9 1.46 1.02.38.75 2.56 1.93l4.06 1.83c.09.05.22.13.31.18l4.32 2.66c9.29 7.55 11.3 13.16 11.3 26.91l-.46.11.29-.89c-1.52 2.18-1.76 7.67-1.73 8.57.02.69.22 2.28.53 3.96 4 21.76-3.19 25.57-6.87 41.04-1.69 7.11-.93 2.7-6.31 5.11-1.91.86-4.78 4-5.8 5.61-1.92 3.04-3.88 13.01-5.07 17.26-2.97 10.59-6.22 16.52-1.85 27.4 1.02 2.53-2.37 15.02-3.2 18.66-.64 2.82-1.79 6.76-1.79 9.62-2.32-1.12-2.67-.97-4.6-2.84-3.86-3.73-3.57-5.14-5.82-9.07-1.21-2.1-1.84-2.35-3.97-3.48-1.22 1.82-3.79 2.76-2.2 10.14 1.72 8.02 4.77 14.74 5.76 20.55.95 5.56-.66 5.47-1.08 10.49h.99c2.17-9.33 2.58-8.57-1.42-20.41-1.87-5.53-4.82-13.51-2.05-19.29 1.88.5 2.73 1.85 3.47 3.47.43.93.56 1.4 1.09 2.38l1.37 2.59c1.87 3.66 4.69 4.87 7.95 6.44-4.3 18.44 6.13 13.13 18.13 11.18 3.71-.6 8.37.07 11.15-1.26.39 1.66.8 2.61 1.98 3.47 0-3.19-4.69-13.8-5.9-17.42l-3.03-8.38c-2.8-5.72-10.05-28.71-11.28-35.36-.66-3.55-.63-7.15-.63-11.28 6.09 0 6.96 2.4 8.94 6.44 4.19 8.55 6.04 17.8 8.65 25.58.39 1.17.66 1.57 1.06 2.91.68 2.32 1.06 4.03 1.75 6.19 2.5 7.84 4.33 16.09 6.29 24.47 1.89 8.06 2.98 20.65 10.02 21.24-3.62-3.15-4.55-4.01-5.96-9.42l-2.97-12.91c-1.05-4.42-1.77-8.58-3.04-12.84l-3.52-12.36c-1.9-6.82-9.29-35.6-15.69-39.38-2.4-1.41-3.52-1.12-6.03-.91.97-4.15 1.65-7.88 3.17-11.71 3.8-9.55 11.89-7.98 19.37-4.88 16.07 6.67 18.63 24.83 23.39 37.64 1.18 3.17 2 9.6 4.18 11.2-.41-1.95.04-1.51-.57-3.85-3-11.46-9.78-34.43-18.98-41.59-5.68-4.42-8.16-5.51-15.18-7.15 0-3.08 1.31-7.09 2.16-9.74 3.7-11.44 7.21-11.8 6.16-30.78-.14-2.55.79-14.23.62-21.51-.17-7.14-2.57-12.21-6.25-17.56-1.47-2.14-7.11-6.65-9.62-8.24l-8.29-4.12c-1.74-.81-2.45-1.38-4.44-2.02-7.01-2.22-13.69-.69-19.76 3.45-2.32 1.58-4.62 3.91-6.35 6.05-2.93 3.59-13.37 17.83-15.27 21.45-3.66 6.96-3.92 12.5-2.75 20.63 1.27 8.84-.35 15.24-.71 23.54-.37 8.55-10.94 16.33 10.41 26.8 1.31.64 2.91 1.08 4.06 1.89 6.69 4.69 2.51 11.27-.58 17.45-4.15 8.31-4.42 6.72-14.58 10.22-3.4 1.17-5.3 2.55-8.05 4.36-2.13 1.4-11.27 9.59-12.1 12.71 2.21-.18 3.83-2.84 6.37-6.03 2.84-3.58 10.22-8.05 14.89-9.92 3.13-1.26 5.95-1.78 9.01-3.4.09 4 4.16 4.86 6.75 4.3 8.48-1.82 6.02-11.86 5.57-15.13-.19-1.35-.46-2.84-.55-4.63-.06-1.22-.35-2.69-.35-4.88 1.6.37 2.18.84 3.97.99 6.54-9.76.12-8.26 16.71-18.52 1.78-1.1 2.98-1.69 4.57-2.87 2.83-2.11 4.95-5.17 7.5-6.89ZM161.84 60.79l2.98 2.98m-2.98-2.98l.94.1c1.68 1.03 1.02.11 1.54 1.39-1.94-.93-1.28.15-2.48-1.49Zm-5.95-.5c1.03 1.43 1.61.49 4.22 1.21 2.06.57 2.83 1.76 4.71 2.26.91 2.76-.33-1.03 1.49 1.49-6.79 0-13.76 1.41-16.87-4.47 4.85 1.13 2.89-.2 6.45-.5m0 0l7.44-.5m-7.44.5l-1.11-.56 2.54.21Zm2.48-1.66l-4.47.18m4.47-.18l.44.16 1.05-.03c1.59 1.03.19.7.98 1.53l1 .5-1.12.12-2.62-.57.55-1.53-1.76-.32Zm4.96 1.17c-1.42-1.94-3.11-2.01-6.45-2.01-8.09-.01-2.3 1.41-6.95 1.52 2.84-2.47 4.96-6.28 10.83-4.39l3.39 2.08c1.52 1.31 4.22 4.73 4.63 6.28-2.97-.25-.55-.92-3.97-.99 1.06-1.59.81-.35.99-2.48-1.51.62-.12.2-2.48 0Zm-15.38.99c1.87 2.79 2.47 5.69 10.43 5.98l4.88-.06c3.7-.38 1.42-.3 5.72-1.75l-.15-.18c1.76-2.55 1.43-2.14.25-3.8-1.08-1.52-1.11-1.75-2.4-3.05-2.65-2.69-5.29-4.94-9.78-4.59-1.98.16-5.83 1.93-6.97 4l-.39 1c-.87 1.61-1.08 1.68-1.61 2.46Zm-1.98-22.82l.15.15-.2-.1Zm4.47-.99c.97-.84.98-1.19 2.68-.76 1.61.4 1.59.73 2.28 1.75-1.69-.39-2.96-.95-4.96-.99m0 0c1.69 1.61 1.34 1.62 3.93 2.52 1.97.68 3.38.46 5.99.46l.25-.63-.15.1c-1.89-3.37 1.13.41-2.67-1.78-1.52-.88-2.24-1.84-3.78-2.78-4.4-2.66-6.05 1.57-9.03.13.85 4.02-1.43 4.7 3.97 5.95-.95-3.54-1.39.78-1.49-3.47 2.78-1.29.19.79 2.98-.5Zm29.27 7.44h-1.49l.38-1.54Zm-2.48-2.48h1.98v.5l-.81.01c-1.03-.3-.7-.2-1.17-.5Zm-2.48-1.49l2.48 1.49m-2.48-1.49l.57.97-1.07-.47-1.59 1.38c4.47-.87-.17-.42 3.03 1.15 2.13 1.05 2.03 1.63 4.79 2.24l.56.11.87.3c1.16.29.97.27 2.27.27.79-2.18 1.38-.15 1.99-1.98-3.64-.4 1.22.8-3.19-1.77l-2.95-2.02c-.06-.04-.22-.11-.32-.18-.61-.29-1.95-.83-2.55-.86l-.37-.08c-2.95.9-1.16.34-2.03.94ZM134.05 95.03l-1.13-.02c.74-3.46.59-2.7 1.62-3.46-.34 1.46-.5 1.51-.5 3.47Zm-2.48 3.47l.45-.01c1.05-4.01.69-2.58 1.04-2.47l.07.11c.03 1.27.17 2.2-.56 3.36v.5c2.9-.77 1.73-2.26 2.28-5.66.33-2.02.7-5.87.7-7.74-2.79 2.04-3.97 8.18-3.97 11.91Zm28.78-53.59l.78-.08-.78 1.47Zm-.99 3.97l-.44-.29c-3.75-1.89.03.31-2.54-.7 1.04-1.55.82-1.98 2.98-2.48.68 1.64-.18 1.33.5 2.98 1.34-.98 1.03-1.52 1.49-3.47h.99c.19 2.3-.53.87.99 1.98 0-2.31-.49-2.28 0-3.47h-4.96c-2.14 3.19-3.23 1.98-3.47 4.96 1.52.41 1.74 1.23 3.39.97l.53-.11Zm7.44.5l1.88.79-2.71.04Zm-2.98-1.49v1.49c1.12.09 1.57-.45 1.59.96l-.79-1.43c4.26 1.95 2.22 1.61 4.66.96l-1.72-4.73c-.28-.7-.97-3.9-4.24-3.2l2.48.99c.6 2.85.21 3.44 0 5.95-1.65-.55-.67.06-.5-1.98Zm-3.97-32.25l.54.97c.93-.49 1.96-.99 2.95-1.45 3.35-1.54 3.38-2.99 10.41-2.99l.5-.48.86.17c-1.45-1.47-7.18-.54-7.6-.45l-7.42 3.98c-.05.05-.15.18-.23.26Zm-27.79 85.84l.32-.53-.79-.42-.03-2.03-.97-.54-.52.54c1.06 1.53.29 1.73 1.98 2.98Zm20.84-60.04l.6-.2 1.57-.61c.07-.03.21-.11.32-.18l-.15-.11c-2.99-.89-1.73-.22-3.33-.88Zm6.95 18.53l.99.32.61-.5-.39-.32c-2.25-.68-2.27-.62-2.69-.84l.28.18-.55 1.53Zm26.3-15.56c1.44-1.06.94.07.99-2.48-1.33.96-.53.3-.99 2.48Zm-39.2 19.85l.71.34.42-1.45Zm12.9-14.39h-1.49v.99l.72.06ZM142.49 35.98l.72.06-.56-.99Zm46.14-2.48V32.01h-.5l0 .74Zm-28.28-2.98l.5-.99h-.99Zm-.5 25.3l1.79-.71-2.63-.12ZM131.57 80.14l.55.11.91 1.13-.91-1.4-.68-.87Zm28.28-30.27l.67.22ZM119.66 72.7h.5l-.41-.58Zm12.9 26.79V99l-.58.41Zm63.01 94.27v.5l.58-.41ZM189.63 69.23h-.5l.41.58ZM141.5 34.99h.5l-.41-.58Zm47.14-1.49V34l.58-.41ZM159.36 15.64h-.5l.41.58Zm24.31 55.08v-.5l-.58.41Zm3.47-30.76h-.5l.41.58Zm-29.77-8.93h-.5l.41.58Zm22.33 9.43h.5l-.41-.58Zm-18.85-1.98h.5l-.41-.58Zm27.78-3.47l.15-.15-.2.1Zm-1.98 6.45l.15-.15-.2.1Zm-44.66-4.47l.15-.15-.2.1Zm42.18 5.46l.15-.15-.2.1Zm-16.87.5l.15-.15-.2.1ZM154.4 70.72l.15-.15-.2.1Zm29.27 3.97l.15-.15-.2.1Zm-49.12 6.95l.15-.15-.2.1Zm48.63-16.87l.15-.15-.2.1ZM134.05 80.64l.15-.15-.2.1Zm25.8-32.25l-.5.5Zm3.97-.5l-.5-.99Zm10.92-7.44l-.5.5Zm13.4 1.98l-.57.97ZM159.86 15.64h-.5Zm13.89-3.47l.97.57ZM159.86 29.53v-.5Zm0 0" fill="#FAF6F3" fill-rule="evenodd"/><path d="M165.31 180.87c9.35 2.18 7.11 1.35 14.73 2.61 2.6.43 5.37.8 7.61 1.84 1.37.64 3.11 1.67 4.04 2.94l.82.59c-1.78 1.11-7.38 1.4-9.33 1.44-6.61.14-16 5.13-18.05.19-1.46-3.52.18-5.76.18-9.6Zm6.45-27.29c7.43 4.97 8.56 6.98 12.41 14.38 1.18 2.27 7.25 15.95 7.93 18.86-5.61-3.76-4.74-3.5-12.32-4.55l-13.48-2.4c0-3.74.12-4.25.94-7l1.5-6.44c.63-3.02 1.98-10.7 3.02-12.86Zm11.91 10.92l1.09.89-.65.28m-.44-1.18l-.43-.56c-1.94-2.98-2.76-5.93-7.3-9.07-1.22-.84-2.44-1.94-3.68-2.27 0-2.01.21-2.2.6-3.86.4-1.69.85-8.09 1.88-12.51l.14.16.15.44 6.3 20.6c.6 1.5 2.22 5.71 2.34 7.09Zm-20.34-14.89c0 3.01-.47 5.49-2.04 7.88-4.14 6.29-16 2.34-8.04-12.01 1.94-3.51 5.02-6.22 7.28-10.09l1.05-1.93c1.07-1.9-.52-.4 1.27-1.71 0 4.08-.49 4.97-.09 8.51.38 3.42.59 5.72.59 9.35ZM141 138.2c-2.79 0-4.5.18-5.95-1.99.66-2.46 8.75-7.02 9.92-11.41 1.61 1.18.75.25 1.11 2.86.61 4.44-.05 10.54-5.08 10.54Zm30.27 11.91h-.99c-1.05-4.49-1.48-6.84-.93-12.34.41-4.09 1.99-8.01 2.91-11.98h.99c1.19 14.28-1.99 16.16-1.99 24.31Zm-7.94-19.85l.15.15-.2-.1Zm-23.82-.5l-.5.5m.5-.5l-.5.5Zm33.24-4.96l1.88.79-2.71.04Zm-33.24 4.96l4.96-10.42-.52 7.45Zm4.96-11.91l.79-.08-.79 1.47Zm-14.39-14.89c2.17.51 3.79.49 6.02-2.91 1.44-2.19 1.91-4.93 1.91-8.5l1.39 4.06c1.62 6.14 1.97 10.08 3.07 14.79-3.06-1.62.85-.75-6.25-3.67-1.6-.66-2.02-1.09-3.2-1.76-1.5-.85-1.96-.67-2.95-2.01Zm17.37 11.41l31.26-26.79m-31.26 26.79c-2.69-2.9-.92-1.14-.99-7.44-.04-3.94 1.31-12.63 1.2-15.25-.03-.78-.22-1.98-.22-3.11 3.5.93-1.67.58 7.5 1.69 2.22.27 3.88-.15 7.1-.98 2.83-.72 3.99-1.61 6.94-2.48 5.47-1.61 2.26-1.2 8.72-1.2-.47 1.77-2.56 3.77-3.95 4.98-11.53 10-18.39 9.14-22.69 20.49-.41 1.08-.57 2.02-1.47 2.56l-.78.28c-1.01.35.31.02-1.36.47Zm17.37-27.29c-2.07.17-4.01 1.56-8.1 1.91-2.84.24-8-.51-8.94-2.37-1.65-3.3 6.31-.97 12.11-.57 2.77.19 3.67-.69 4.93 1.03Zm-18.36-.99l.15.15-.2-.1Zm24.81-1.49l.15.15-.2-.1Zm-35.23-9.43l3.17 2.29c1.38.74 2.9 1.11 4.76 1.19 3.89.16 12.48.1 14.57.81l9.94 4.68c1.03.25-.52.1.98.08l.97-.12c-1.29 2.22-2.98.67-6.15.53-4.9-.22-7.96.21-13.23-.66-2.13-.35-3.97-1.37-7.07-1.37.84 1.59.18 1.79 2.48 1.98v.99l-.77-.34c.53 2.7.94 3 .8 6.79-.21 5.45-2.3 14.87-1.02 20.34-2.19-1.6-2.13-5.27-2.69-8.73-.74-4.59-6.62-22.86-6.74-28.49Zm-3.47.99l.15.15-.2-.1Zm50.61-.5l.15.15-.2-.1Zm-47.14-.5l-.5-.5Zm-.5-.5l-.57-.97Zm-1.98-5.46h.5c0 2.49.06 2.57.5 4.47-1.99-1.46-.99-1.44-.99-4.47Zm50.11-2.98l6.95 1.98m-6.95-1.98l1.88.79-2.71.04Zm5.95 2.98l.98-.98c-.19 2.34-1.41 3.66-2.65 5.27-1.96 2.52-2.38 1.91-5.27 1.67.19-2.25.38-1.56 2.18-3.28l.18-.17c4.06-4.09 3.23-5.11 5.09-6.47-.41 1.77-1.01 2.72-.5 3.97Zm.99-7.44l.5 4.47-.5-1.85ZM135.05 59.8l.15.15-.2-.1Zm0-3.97l.22-.01c.31 1.78.27 2.28.27 2.99h-.5Zm55.08-.99l.62-1.76-.3 3.5Zm6.45-.99l.15.15-.2-.1Zm.5-6.95c.32 1.5 0 3.77 0 6.45h-.5c0-1.49-.32-5.16.5-6.45m0 0V44.91l.56-1.11-.21 2.54Zm-.5-2.98l.15.15-.2-.1ZM135.05 55.83l.01-10.9 1.48-2.99-.29 1.5c-.6 2.6-.58 3.13-.79 4.86-.3 2.44-.4 4.41-.4 7.53Zm1.49-14.88l.7.23Zm.5-.99l51.11.99Zm51.11-.5l-51.11.5m51.11-.5l.15.15-.2-.1Zm-5.95-4.47l7.44 2.98m-7.44-2.98l.15.15-.2-.1Zm-1.49 0l.97-.57ZM177.72 34l2.81.27-3.53.45Zm-18.36-1.98l17.37 2.48m-17.37-2.48l-.5-.99 1.53.27Zm-15.88-2.48l15.38 1.49Zm14.89-.99l-14.89.99m14.89-.99l-.8 1.23.8-2.22Zm.5-1.49l1.99.5-.81.01c-1.03-.3-.7-.2-1.18-.51Zm-4.47 0h2.48v1.49l-.29-.26-1-.3c-1.18-.55-1.14.71-1.19-.93Zm0-.99l.15.15-.2-.1Zm24.31 61.53c0 20.48-8.82 15.48-14.39 36.22l-2.92 7.5c-1.55 3.87-6.25 9.03-8.28 12.07-10.46 15.7 3.81 24.67 10.12 13.09 2.38-4.38 1.32-10.9.65-16.86-.34-2.96-.1-10.74 2.09-12.15 2.44-1.57 2.57.58 3.3-2.17-2.61.06-1.9.51-3.97.99.26-3.14 2.79-10.37 4.17-12.7 4.29-7.25 7.72-8.02 9.51-15.8.68-2.98.47-4.46.78-7.66.25-2.53 1-4.62 1.45-7.01.81-4.33-.44-3.65-.52-7.45 3.78 2 5.81 1.84 8.57-1.35 5.57-6.43 1.26-22.32 2.21-33.52.38-4.48-.57-7.61-1.45-11.18-1.22-4.91-1.27-4.92-3.96-9.44-2.3-3.87-2.96-4.23-7.18-6.26-1.41-.68-6.26-.58-8.46-.14-2.61.53-1.61.05-2.13 1.34 1.48.61 8.43-1.69 13.41 1.48 2.33 1.48 5.68 8.43 6.45 11.42l1.21 4.78.27 5.15c-3.49-2.33-5.39-6.61-13.7-5.27-.59.09-2.24.4-2.9.57-2.41.61-1.1-.34-2.25 1.23 2.69.62 3.07.24 5.95 0v1.49c1.22-.58 2.15-.95 3.97-.99 1.05 1.44 1.71.96 3.83 1.63 2.88.92 1.55 1.1 2.62 3.33l.98.98.01 1.5.95-.93-.54 6.72c.46 3.4.59-.55.59 7.11-3.37 1.62-10.5 3.49-10.92 8.44 1.65-1.1.92-1.09 2.21-2.26.8-.72 8.29-6.15 9.06-3.64l.04-.63c.01 6.53-2.44 11.18-5.86 13.47l-2.48 3.97c.05-2.13 1.31-4.54 2.71-6.22 1.16-1.39.17-1.05 2.25-1.22-1.21-1.81-.84-2.05-2.94-1.7l-.59.16c-1.2.22-1.39.03-3.42-.94.91 3.4 5.05.53 2.23 5.14-.78 1.27-.95 1.55-1.43 3.1-.85 2.77-.9 4.78-1.29 6.64l.26-.15 1.22-1.84c0 3.04-.44 4.7-.5 6.95l-1.01.93c-1.1-1.56-1.58-1.51-3.21-1.77-3.59-.57-10.56-3.13-13.64-4.61 1.38-2.06 1.53-4.28.02-6.47-1.53-2.21-3.61-1.8-6.47-2.46.87 2.15 2.22 1.46 3.67 1.71.51.09.94-1.12 2.35 3.25 1.53 4.75-2.32 2.85-3.15 2.7-8.47-1.52-22.74 2.61-23.02-9.28-.03-1.45-.05-2.93.4-4.73 1.51-6.04.52-8.78.88-15.49.18-3.41 1.22-7.34 3.3-9.6l.18-.17c1.06-1.17 1.34-1.69 1.5-3.6-.1-.18-.8-.44.35-2.06 1.07-1.51 3.96-3.85 6.1-4.42 1.9-.51 2.35-.37 4.67.29 4.46 1.27 4.11.6 4.76 2.22 1.18.79.52.6 1.98.99.69 2.6 1.22 1.2 2.05 2.97l.22.58.36.52.16-.15-.37-.93-1.02.24 2.68.32c-.28-.54-.36-.66-.41-.76l-2.67-4.28c-1.63-.43-1.58-.28-1.98-1.98l.94-.01 1.54 1c.35-.5.02.17.55-.94l.37-.91c1.59.21 3.28.42 4.5 1.38l.48.45.44.46.24.26 1.85 1.77c-.44-5.22-7.63-6.59-11.91-6.95-.22-2.61-2.76-5.56 2.12-11.28 2.25-2.64 6.94-4.62 11.28-3.6l.15-.56-2.02-.86c-6.19-.48-11.36 3.34-13.18 9.19-1.03 3.32.11 5.21.67 7.61-1.85-.43-1.78-.72-4.2-.01l-.35.12c-2.78 1.2-3.36.86-5.03 1.71-2.06 1.05-1.17 1.57-3.32 2.14.41-.86 1.23-3.77 1.52-4.88l.52-2.07c.37-1.34.45-.84.45-2.97h-.99c-.36 4.27-5.11 16.12-7.94 20.34l-.5.99c-2.26.82-3.21 6.04-3.43 8-.36 3.1.81 7.39.97 10.37.2 3.79-1.1 6.52-1.75 9.71-.57 2.8.27 2.09.21 4.63-.04 1.72-.47 2.91-.47 5.49l.74-.96.14-.13 1.42-2.04c.04-.07.1-.24.18-.34.59 2.55 2.7 11.27 2.66 13.64-.03 1.84.17 1.12-.2 3.18-.7 3.88-1.54 8.19-4.94 8.98l.13.08c-3.05.94-3.51.79-4.63-.01-.99-.72-2.53-2.87-2.99-4.03-1.02-2.56 1.76-7.05 3.03-9.44-2.28.83-3.02 3.42-3.94 5.48l-.14.42c-.38-4.35 1.93-3.08 2.53-8.95.43-4.17.6-7.2 1.21-11.19 2.18-14.24-3.29-21.36 1.39-34.34 1.17-3.25 7.72-12.04 10.16-15.15 1.09-1.39 1.67-2.36 2.82-3.63 3.53-3.91 2.66-5.23 9.01-9.85 6.15-4.48 12.23-5.86 19.35-3.38 1.17.41 3.73 1.33 4.55 1.9 1.46 1.02.38.75 2.56 1.93l4.06 1.83c.09.05.22.13.31.18l4.32 2.66c9.29 7.55 11.3 13.16 11.3 26.91l-.46.11.29-.89c-1.52 2.18-1.76 7.67-1.73 8.57.02.69.22 2.28.53 3.96 4 21.76-3.19 25.57-6.87 41.04-1.69 7.11-.93 2.7-6.31 5.11-1.91.86-4.78 4-5.8 5.61-1.92 3.04-3.88 13.01-5.07 17.26-2.97 10.59-6.22 16.52-1.85 27.4 1.02 2.53-2.37 15.02-3.2 18.66-.64 2.82-1.79 6.76-1.79 9.62-2.32-1.12-2.67-.97-4.6-2.84-3.86-3.73-3.57-5.14-5.82-9.07-1.21-2.1-1.84-2.35-3.97-3.48-1.22 1.82-3.79 2.76-2.2 10.14 1.72 8.02 4.77 14.74 5.76 20.55.95 5.56-.66 5.47-1.08 10.49h.99c2.17-9.33 2.58-8.57-1.42-20.41-1.87-5.53-4.82-13.51-2.05-19.29 1.88.5 2.73 1.85 3.47 3.47.43.93.56 1.4 1.09 2.38l1.37 2.59c1.87 3.66 4.69 4.87 7.95 6.44-4.3 18.44 6.13 13.13 18.13 11.18 3.71-.6 8.37.07 11.15-1.26.39 1.66.8 2.61 1.98 3.47 0-3.19-4.69-13.8-5.9-17.42l-3.03-8.38c-2.8-5.72-10.05-28.71-11.28-35.36-.66-3.55-.63-7.15-.63-11.28 6.09 0 6.96 2.4 8.94 6.44 4.19 8.55 6.04 17.8 8.65 25.58.39 1.17.66 1.57 1.06 2.91.68 2.32 1.06 4.03 1.75 6.19 2.5 7.84 4.33 16.09 6.29 24.47 1.89 8.06 2.98 20.65 10.02 21.24-3.62-3.15-4.55-4.01-5.96-9.42l-2.97-12.91c-1.05-4.42-1.77-8.58-3.04-12.84l-3.52-12.36c-1.9-6.82-9.29-35.6-15.69-39.38-2.4-1.41-3.52-1.12-6.03-.91.97-4.15 1.65-7.88 3.17-11.71 3.8-9.55 11.89-7.98 19.37-4.88 16.07 6.67 18.63 24.83 23.39 37.64 1.18 3.17 2 9.6 4.18 11.2-.41-1.95.04-1.51-.57-3.85-3-11.46-9.78-34.43-18.98-41.59-5.68-4.42-8.16-5.51-15.18-7.15 0-3.08 1.31-7.09 2.16-9.74 3.7-11.44 7.21-11.8 6.16-30.78-.14-2.55.79-14.23.62-21.51-.17-7.14-2.57-12.21-6.25-17.56-1.47-2.14-7.11-6.65-9.62-8.24l-8.29-4.12c-1.74-.81-2.45-1.38-4.44-2.02-7.01-2.22-13.69-.69-19.76 3.45-2.32 1.58-4.62 3.91-6.35 6.05-2.93 3.59-13.37 17.83-15.27 21.45-3.66 6.96-3.92 12.5-2.75 20.63 1.27 8.84-.35 15.24-.71 23.54-.37 8.55-10.94 16.33 10.41 26.8 1.31.64 2.91 1.08 4.06 1.89 6.69 4.69 2.51 11.27-.58 17.45-4.15 8.31-4.42 6.72-14.58 10.22-3.4 1.17-5.3 2.55-8.05 4.36-2.13 1.4-11.27 9.59-12.1 12.71 2.21-.18 3.83-2.84 6.37-6.03 2.84-3.58 10.22-8.05 14.89-9.92 3.13-1.26 5.95-1.78 9.01-3.4.09 4 4.16 4.86 6.75 4.3 8.48-1.82 6.02-11.86 5.57-15.13-.19-1.35-.46-2.84-.55-4.63-.06-1.22-.35-2.69-.35-4.88 1.6.37 2.18.84 3.97.99 6.54-9.76.12-8.26 16.71-18.52 1.78-1.1 2.98-1.69 4.57-2.87 2.83-2.11 4.95-5.17 7.5-6.89ZM161.84 60.79l2.98 2.98m-2.98-2.98l.94.1c1.68 1.03 1.02.11 1.54 1.39-1.94-.93-1.28.15-2.48-1.49Zm-5.95-.5c1.03 1.43 1.61.49 4.22 1.21 2.06.57 2.83 1.76 4.71 2.26.91 2.76-.33-1.03 1.49 1.49-6.79 0-13.76 1.41-16.87-4.47 4.85 1.13 2.89-.2 6.45-.5m0 0l7.44-.5m-7.44.5l-1.11-.56 2.54.21Zm2.48-1.66l-4.47.18m4.47-.18l.44.16 1.05-.03c1.59 1.03.19.7.98 1.53l1 .5-1.12.12-2.62-.57.55-1.53-1.76-.32Zm4.96 1.17c-1.42-1.94-3.11-2.01-6.45-2.01-8.09-.01-2.3 1.41-6.95 1.52 2.84-2.47 4.96-6.28 10.83-4.39l3.39 2.08c1.52 1.31 4.22 4.73 4.63 6.28-2.97-.25-.55-.92-3.97-.99 1.06-1.59.81-.35.99-2.48-1.51.62-.12.2-2.48 0Zm-15.38.99c1.87 2.79 2.47 5.69 10.43 5.98l4.88-.06c3.7-.38 1.42-.3 5.72-1.75l-.15-.18c1.76-2.55 1.43-2.14.25-3.8-1.08-1.52-1.11-1.75-2.4-3.05-2.65-2.69-5.29-4.94-9.78-4.59-1.98.16-5.83 1.93-6.97 4l-.39 1c-.87 1.61-1.08 1.68-1.61 2.46Zm-1.98-22.82l.15.15-.2-.1Zm4.47-.99c.97-.84.98-1.19 2.68-.76 1.61.4 1.59.73 2.28 1.75-1.69-.39-2.96-.95-4.96-.99m0 0c1.69 1.61 1.34 1.62 3.93 2.52 1.97.68 3.38.46 5.99.46l.25-.63-.15.1c-1.89-3.37 1.13.41-2.67-1.78-1.52-.88-2.24-1.84-3.78-2.78-4.4-2.66-6.05 1.57-9.03.13.85 4.02-1.43 4.7 3.97 5.95-.95-3.54-1.39.78-1.49-3.47 2.78-1.29.19.79 2.98-.5Zm29.27 7.44h-1.49l.38-1.54Zm-2.48-2.48h1.98v.5l-.81.01c-1.03-.3-.7-.2-1.17-.5Zm-2.48-1.49l2.48 1.49m-2.48-1.49l.57.97-1.07-.47-1.59 1.38c4.47-.87-.17-.42 3.03 1.15 2.13 1.05 2.03 1.63 4.79 2.24l.56.11.87.3c1.16.29.97.27 2.27.27.79-2.18 1.38-.15 1.99-1.98-3.64-.4 1.22.8-3.19-1.77l-2.95-2.02c-.06-.04-.22-.11-.32-.18-.61-.29-1.95-.83-2.55-.86l-.37-.08c-2.95.9-1.16.34-2.03.94ZM134.05 95.03l-1.13-.02c.74-3.46.59-2.7 1.62-3.46-.34 1.46-.5 1.51-.5 3.47Zm-2.48 3.47l.45-.01c1.05-4.01.69-2.58 1.04-2.47l.07.11c.03 1.27.17 2.2-.56 3.36v.5c2.9-.77 1.73-2.26 2.28-5.66.33-2.02.7-5.87.7-7.74-2.79 2.04-3.97 8.18-3.97 11.91Zm28.78-53.59l.78-.08-.78 1.47Zm-.99 3.97l-.44-.29c-3.75-1.89.03.31-2.54-.7 1.04-1.55.82-1.98 2.98-2.48.68 1.64-.18 1.33.5 2.98 1.34-.98 1.03-1.52 1.49-3.47h.99c.19 2.3-.53.87.99 1.98 0-2.31-.49-2.28 0-3.47h-4.96c-2.14 3.19-3.23 1.98-3.47 4.96 1.52.41 1.74 1.23 3.39.97l.53-.11Zm7.44.5l1.88.79-2.71.04Zm-2.98-1.49v1.49c1.12.09 1.57-.45 1.59.96l-.79-1.43c4.26 1.95 2.22 1.61 4.66.96l-1.72-4.73c-.28-.7-.97-3.9-4.24-3.2l2.48.99c.6 2.85.21 3.44 0 5.95-1.65-.55-.67.06-.5-1.98Zm-3.97-32.25l.54.97c.93-.49 1.96-.99 2.95-1.45 3.35-1.54 3.38-2.99 10.41-2.99l.5-.48.86.17c-1.45-1.47-7.18-.54-7.6-.45l-7.42 3.98c-.05.05-.15.18-.23.26Zm-27.79 85.84l.32-.53-.79-.42-.03-2.03-.97-.54-.52.54c1.06 1.53.29 1.73 1.98 2.98Zm20.84-60.04l.6-.2 1.57-.61c.07-.03.21-.11.32-.18l-.15-.11c-2.99-.89-1.73-.22-3.33-.88Zm6.95 18.53l.99.32.61-.5-.39-.32c-2.25-.68-2.27-.62-2.69-.84l.28.18-.55 1.53Zm26.3-15.56c1.44-1.06.94.07.99-2.48-1.33.96-.53.3-.99 2.48Zm-39.2 19.85l.71.34.42-1.45Zm12.9-14.39h-1.49v.99l.72.06ZM142.49 35.98l.72.06-.56-.99Zm46.14-2.48V32.01h-.5l0 .74Zm-28.28-2.98l.5-.99h-.99Zm-.5 25.3l1.79-.71-2.63-.12ZM131.57 80.14l.55.11.91 1.13-.91-1.4-.68-.87Zm28.28-30.27l.67.22ZM119.66 72.7h.5l-.41-.58Zm12.9 26.79V99l-.58.41Zm63.01 94.27v.5l.58-.41ZM189.63 69.23h-.5l.41.58ZM141.5 34.99h.5l-.41-.58Zm47.14-1.49V34l.58-.41ZM159.36 15.64h-.5l.41.58Zm24.31 55.08v-.5l-.58.41Zm3.47-30.76h-.5l.41.58Zm-29.77-8.93h-.5l.41.58Zm22.33 9.43h.5l-.41-.58Zm-18.85-1.98h.5l-.41-.58Zm27.78-3.47l.15-.15-.2.1Zm-1.98 6.45l.15-.15-.2.1Zm-44.66-4.47l.15-.15-.2.1Zm42.18 5.46l.15-.15-.2.1Zm-16.87.5l.15-.15-.2.1ZM154.4 70.72l.15-.15-.2.1Zm29.27 3.97l.15-.15-.2.1Zm-49.12 6.95l.15-.15-.2.1Zm48.63-16.87l.15-.15-.2.1ZM134.05 80.64l.15-.15-.2.1Zm25.8-32.25l-.5.5Zm3.97-.5l-.5-.99Zm10.92-7.44l-.5.5Zm13.4 1.98l-.57.97ZM159.86 15.64h-.5Zm13.89-3.47l.97.57ZM159.86 29.53v-.5Zm0 0" fill="#FF4D9A" fill-rule="evenodd" clip-path="url(#lp)"/></svg>